<svg xmlns="http://www.w3.org/2000/svg" height="24" viewBox="0 -960 960 960" width="24"><path d="M480-40q-81 0-152.475-31.1-71.476-31.1-124.4-84.025-52.925-52.924-84.025-124.4Q88-351 88-432h106q0 119 83.5 202.5T480-146q119 0 202.5-83.5T766-432q0-119-83.5-202.5T480-718l60 60-74 78-190-190 190-190 74 76-60 60q81 0 152.475 31.1 71.476 31.1 124.4 84.025 52.925 52.924 84.025 124.4Q872-513 872-432t-31.1 152.475q-31.1 71.476-84.025 124.4-52.924 52.925-124.4 84.025Q561-40 480-40Z" fill="#ffffff"/></svg>