<svg xmlns="http://www.w3.org/2000/svg" height="24" viewBox="0 -960 960 960" width="24"><path d="M480-48q-89.64 0-168.48-34.02-78.84-34.02-137.16-92.34-58.32-58.32-92.34-137.16T48-480q0-89.64 34.02-168.48 34.02-78.84 92.34-137.16 58.32-58.32 137.16-92.34T480-912q89.64 0 168.48 34.02 78.84 34.02 137.16 92.34 58.32 58.32 92.34 137.16T912-480q0 89.64-34.02 168.48-34.02 78.84-92.34 137.16-58.32 58.32-137.16 92.34T480-48Zm0-106q136 0 231-95t95-231q0-51-16-99.5T744-670L290-216q42 30 90.5 46t99.5 16ZM216-290l454-454q-42-30-90.5-46T480-806q-136 0-231 95t-95 231q0 51 16 99.5t46 90.5Z" fill="#ffffff"/></svg>