<svg xmlns="http://www.w3.org/2000/svg" xmlns:xlink="http://www.w3.org/1999/xlink" version="1.1" width="24" height="24" viewBox="0,0,256,256 undefined undefined undefined"><g fill="#ffffff" fill-rule="nonzero" stroke="none" stroke-width="1" stroke-linecap="butt" stroke-linejoin="miter" stroke-miterlimit="10" stroke-dasharray="" stroke-dashoffset="0" font-family="none" font-weight="none" font-size="none" text-anchor="none" style="mix-blend-mode: normal"><g transform="rotate(90) scale(0.26667,0.26667)"><path d="M480,-640l-200,200l56,56l104,-103v407h80v-407l104,103l56,-56zM146,-260c-21.33333,-32.66667 -37.66667,-67.66667 -49,-105c-11.33333,-37.33333 -17,-75.66667 -17,-115c0,-55.33333 10.5,-107.33333 31.5,-156c21,-48.66667 49.5,-91 85.5,-127c36,-36 78.33333,-64.5 127,-85.5c48.66667,-21 100.66667,-31.5 156,-31.5c55.33333,0 107.33333,10.5 156,31.5c48.66667,21 91,49.5 127,85.5c36,36 64.5,78.33333 85.5,127c21,48.66667 31.5,100.66667 31.5,156c0,39.33333 -5.66667,77.66667 -17,115c-11.33333,37.33333 -27.66667,72.33333 -49,105l-58,-58c14.66667,-24.66667 25.66667,-50.66667 33,-78c7.33333,-27.33333 11,-55.33333 11,-84c0,-89.33333 -31,-165 -93,-227c-62,-62 -137.66667,-93 -227,-93c-89.33333,0 -165,31 -227,93c-62,62 -93,137.66667 -93,227c0,28.66667 3.66667,56.66667 11,84c7.33333,27.33333 18.33333,53.33333 33,78z" fill="#ffffff"/></g></g></svg>